<mxfile host="app.diagrams.net" modified="2023-11-25T12:40:36.583Z" agent="Mozilla/5.0 (Windows NT 10.0; Win64; x64) AppleWebKit/537.36 (KHTML, like Gecko) Chrome/119.0.0.0 Safari/537.36 Edg/119.0.0.0" etag="5dUcAE3_Tk8EsQBna8jv" version="22.1.4" type="device">
  <diagram id="C5RBs43oDa-KdzZeNtuy" name="Page-1">
    <mxGraphModel dx="3854" dy="1356" grid="1" gridSize="10" guides="1" tooltips="1" connect="1" arrows="1" fold="1" page="1" pageScale="1" pageWidth="827" pageHeight="1169" math="0" shadow="0">
      <root>
        <mxCell id="WIyWlLk6GJQsqaUBKTNV-0" />
        <mxCell id="WIyWlLk6GJQsqaUBKTNV-1" parent="WIyWlLk6GJQsqaUBKTNV-0" />
        <mxCell id="f0gKZIuqGx0MzMBd2Qco-0" value="MultiHeadAttention" style="swimlane;fontStyle=1;align=center;verticalAlign=top;childLayout=stackLayout;horizontal=1;startSize=26;horizontalStack=0;resizeParent=1;resizeParentMax=0;resizeLast=0;collapsible=1;marginBottom=0;whiteSpace=wrap;html=1;fontFamily=Helvetica;fontSize=18;" vertex="1" parent="WIyWlLk6GJQsqaUBKTNV-1">
          <mxGeometry x="-605" y="590" width="310" height="430" as="geometry" />
        </mxCell>
        <mxCell id="f0gKZIuqGx0MzMBd2Qco-1" value="- modelDim: size_t" style="text;strokeColor=none;fillColor=none;align=left;verticalAlign=top;spacingLeft=4;spacingRight=4;overflow=hidden;rotatable=0;points=[[0,0.5],[1,0.5]];portConstraint=eastwest;whiteSpace=wrap;html=1;fontFamily=Helvetica;fontSize=18;" vertex="1" parent="f0gKZIuqGx0MzMBd2Qco-0">
          <mxGeometry y="26" width="310" height="26" as="geometry" />
        </mxCell>
        <mxCell id="f0gKZIuqGx0MzMBd2Qco-12" value="- numHeads: size_t" style="text;strokeColor=none;fillColor=none;align=left;verticalAlign=top;spacingLeft=4;spacingRight=4;overflow=hidden;rotatable=0;points=[[0,0.5],[1,0.5]];portConstraint=eastwest;whiteSpace=wrap;html=1;fontFamily=Helvetica;fontSize=18;" vertex="1" parent="f0gKZIuqGx0MzMBd2Qco-0">
          <mxGeometry y="52" width="310" height="26" as="geometry" />
        </mxCell>
        <mxCell id="f0gKZIuqGx0MzMBd2Qco-13" value="- queryDim: size_t" style="text;strokeColor=none;fillColor=none;align=left;verticalAlign=top;spacingLeft=4;spacingRight=4;overflow=hidden;rotatable=0;points=[[0,0.5],[1,0.5]];portConstraint=eastwest;whiteSpace=wrap;html=1;fontFamily=Helvetica;fontSize=18;" vertex="1" parent="f0gKZIuqGx0MzMBd2Qco-0">
          <mxGeometry y="78" width="310" height="26" as="geometry" />
        </mxCell>
        <mxCell id="f0gKZIuqGx0MzMBd2Qco-20" value="- queryWeight: MatType" style="text;strokeColor=none;fillColor=none;align=left;verticalAlign=top;spacingLeft=4;spacingRight=4;overflow=hidden;rotatable=0;points=[[0,0.5],[1,0.5]];portConstraint=eastwest;whiteSpace=wrap;html=1;fontFamily=Helvetica;fontSize=18;" vertex="1" parent="f0gKZIuqGx0MzMBd2Qco-0">
          <mxGeometry y="104" width="310" height="26" as="geometry" />
        </mxCell>
        <mxCell id="f0gKZIuqGx0MzMBd2Qco-19" value="- keyDim: size_t" style="text;strokeColor=none;fillColor=none;align=left;verticalAlign=top;spacingLeft=4;spacingRight=4;overflow=hidden;rotatable=0;points=[[0,0.5],[1,0.5]];portConstraint=eastwest;whiteSpace=wrap;html=1;fontFamily=Helvetica;fontSize=18;" vertex="1" parent="f0gKZIuqGx0MzMBd2Qco-0">
          <mxGeometry y="130" width="310" height="26" as="geometry" />
        </mxCell>
        <mxCell id="f0gKZIuqGx0MzMBd2Qco-18" value="- keyWeight: MatType" style="text;strokeColor=none;fillColor=none;align=left;verticalAlign=top;spacingLeft=4;spacingRight=4;overflow=hidden;rotatable=0;points=[[0,0.5],[1,0.5]];portConstraint=eastwest;whiteSpace=wrap;html=1;fontFamily=Helvetica;fontSize=18;" vertex="1" parent="f0gKZIuqGx0MzMBd2Qco-0">
          <mxGeometry y="156" width="310" height="26" as="geometry" />
        </mxCell>
        <mxCell id="f0gKZIuqGx0MzMBd2Qco-17" value="- valueDim: size_t" style="text;strokeColor=none;fillColor=none;align=left;verticalAlign=top;spacingLeft=4;spacingRight=4;overflow=hidden;rotatable=0;points=[[0,0.5],[1,0.5]];portConstraint=eastwest;whiteSpace=wrap;html=1;fontFamily=Helvetica;fontSize=18;" vertex="1" parent="f0gKZIuqGx0MzMBd2Qco-0">
          <mxGeometry y="182" width="310" height="26" as="geometry" />
        </mxCell>
        <mxCell id="f0gKZIuqGx0MzMBd2Qco-16" value="- valueWeight: MatType" style="text;strokeColor=none;fillColor=none;align=left;verticalAlign=top;spacingLeft=4;spacingRight=4;overflow=hidden;rotatable=0;points=[[0,0.5],[1,0.5]];portConstraint=eastwest;whiteSpace=wrap;html=1;fontFamily=Helvetica;fontSize=18;" vertex="1" parent="f0gKZIuqGx0MzMBd2Qco-0">
          <mxGeometry y="208" width="310" height="26" as="geometry" />
        </mxCell>
        <mxCell id="f0gKZIuqGx0MzMBd2Qco-14" value="- outWeight: MatType" style="text;strokeColor=none;fillColor=none;align=left;verticalAlign=top;spacingLeft=4;spacingRight=4;overflow=hidden;rotatable=0;points=[[0,0.5],[1,0.5]];portConstraint=eastwest;whiteSpace=wrap;html=1;fontFamily=Helvetica;fontSize=18;" vertex="1" parent="f0gKZIuqGx0MzMBd2Qco-0">
          <mxGeometry y="234" width="310" height="26" as="geometry" />
        </mxCell>
        <mxCell id="f0gKZIuqGx0MzMBd2Qco-2" value="" style="line;strokeWidth=1;fillColor=none;align=left;verticalAlign=middle;spacingTop=-1;spacingLeft=3;spacingRight=3;rotatable=0;labelPosition=right;points=[];portConstraint=eastwest;strokeColor=inherit;fontFamily=Helvetica;fontSize=18;" vertex="1" parent="f0gKZIuqGx0MzMBd2Qco-0">
          <mxGeometry y="260" width="310" height="8" as="geometry" />
        </mxCell>
        <mxCell id="f0gKZIuqGx0MzMBd2Qco-3" value="- ScaledDotProductAttention (MatType Q, MatType K, MatType V, MatType Mask, MatType&amp;amp; output)" style="text;strokeColor=none;fillColor=none;align=left;verticalAlign=top;spacingLeft=4;spacingRight=4;overflow=hidden;rotatable=0;points=[[0,0.5],[1,0.5]];portConstraint=eastwest;whiteSpace=wrap;html=1;fontFamily=Helvetica;fontSize=18;" vertex="1" parent="f0gKZIuqGx0MzMBd2Qco-0">
          <mxGeometry y="268" width="310" height="82" as="geometry" />
        </mxCell>
        <mxCell id="f0gKZIuqGx0MzMBd2Qco-21" value="+ Forward(MatType Q, MatType K, MatType V, MaType Mask, MatType&amp;amp; output)" style="text;strokeColor=none;fillColor=none;align=left;verticalAlign=top;spacingLeft=4;spacingRight=4;overflow=hidden;rotatable=0;points=[[0,0.5],[1,0.5]];portConstraint=eastwest;whiteSpace=wrap;html=1;fontFamily=Helvetica;fontSize=18;" vertex="1" parent="f0gKZIuqGx0MzMBd2Qco-0">
          <mxGeometry y="350" width="310" height="80" as="geometry" />
        </mxCell>
        <mxCell id="f0gKZIuqGx0MzMBd2Qco-22" value="PositionWiseFeedForward" style="swimlane;fontStyle=1;align=center;verticalAlign=top;childLayout=stackLayout;horizontal=1;startSize=26;horizontalStack=0;resizeParent=1;resizeParentMax=0;resizeLast=0;collapsible=1;marginBottom=0;whiteSpace=wrap;html=1;fontFamily=Helvetica;fontSize=18;" vertex="1" parent="WIyWlLk6GJQsqaUBKTNV-1">
          <mxGeometry x="-580" y="310" width="260" height="200" as="geometry" />
        </mxCell>
        <mxCell id="f0gKZIuqGx0MzMBd2Qco-23" value="- modelDim: size_t" style="text;strokeColor=none;fillColor=none;align=left;verticalAlign=top;spacingLeft=4;spacingRight=4;overflow=hidden;rotatable=0;points=[[0,0.5],[1,0.5]];portConstraint=eastwest;whiteSpace=wrap;html=1;fontFamily=Helvetica;fontSize=18;" vertex="1" parent="f0gKZIuqGx0MzMBd2Qco-22">
          <mxGeometry y="26" width="260" height="26" as="geometry" />
        </mxCell>
        <mxCell id="f0gKZIuqGx0MzMBd2Qco-40" value="- hiddenDim: size_t" style="text;strokeColor=none;fillColor=none;align=left;verticalAlign=top;spacingLeft=4;spacingRight=4;overflow=hidden;rotatable=0;points=[[0,0.5],[1,0.5]];portConstraint=eastwest;whiteSpace=wrap;html=1;fontFamily=Helvetica;fontSize=18;" vertex="1" parent="f0gKZIuqGx0MzMBd2Qco-22">
          <mxGeometry y="52" width="260" height="26" as="geometry" />
        </mxCell>
        <mxCell id="f0gKZIuqGx0MzMBd2Qco-41" value="- fc1: MatType" style="text;strokeColor=none;fillColor=none;align=left;verticalAlign=top;spacingLeft=4;spacingRight=4;overflow=hidden;rotatable=0;points=[[0,0.5],[1,0.5]];portConstraint=eastwest;whiteSpace=wrap;html=1;fontFamily=Helvetica;fontSize=18;" vertex="1" parent="f0gKZIuqGx0MzMBd2Qco-22">
          <mxGeometry y="78" width="260" height="26" as="geometry" />
        </mxCell>
        <mxCell id="f0gKZIuqGx0MzMBd2Qco-42" value="- fc2: MatType" style="text;strokeColor=none;fillColor=none;align=left;verticalAlign=top;spacingLeft=4;spacingRight=4;overflow=hidden;rotatable=0;points=[[0,0.5],[1,0.5]];portConstraint=eastwest;whiteSpace=wrap;html=1;fontFamily=Helvetica;fontSize=18;" vertex="1" parent="f0gKZIuqGx0MzMBd2Qco-22">
          <mxGeometry y="104" width="260" height="26" as="geometry" />
        </mxCell>
        <mxCell id="f0gKZIuqGx0MzMBd2Qco-24" value="" style="line;strokeWidth=1;fillColor=none;align=left;verticalAlign=middle;spacingTop=-1;spacingLeft=3;spacingRight=3;rotatable=0;labelPosition=right;points=[];portConstraint=eastwest;strokeColor=inherit;fontFamily=Helvetica;fontSize=18;" vertex="1" parent="f0gKZIuqGx0MzMBd2Qco-22">
          <mxGeometry y="130" width="260" height="8" as="geometry" />
        </mxCell>
        <mxCell id="f0gKZIuqGx0MzMBd2Qco-25" value="+ Forward(MatType input, MatType&amp;amp; output)" style="text;strokeColor=none;fillColor=none;align=left;verticalAlign=top;spacingLeft=4;spacingRight=4;overflow=hidden;rotatable=0;points=[[0,0.5],[1,0.5]];portConstraint=eastwest;whiteSpace=wrap;html=1;fontFamily=Helvetica;fontSize=18;" vertex="1" parent="f0gKZIuqGx0MzMBd2Qco-22">
          <mxGeometry y="138" width="260" height="62" as="geometry" />
        </mxCell>
        <mxCell id="f0gKZIuqGx0MzMBd2Qco-26" value="Normalize" style="swimlane;fontStyle=1;align=center;verticalAlign=top;childLayout=stackLayout;horizontal=1;startSize=26;horizontalStack=0;resizeParent=1;resizeParentMax=0;resizeLast=0;collapsible=1;marginBottom=0;whiteSpace=wrap;html=1;fontFamily=Helvetica;fontSize=18;" vertex="1" parent="WIyWlLk6GJQsqaUBKTNV-1">
          <mxGeometry x="-160" y="620" width="210" height="120" as="geometry" />
        </mxCell>
        <mxCell id="f0gKZIuqGx0MzMBd2Qco-27" value="- eps: double" style="text;strokeColor=none;fillColor=none;align=left;verticalAlign=top;spacingLeft=4;spacingRight=4;overflow=hidden;rotatable=0;points=[[0,0.5],[1,0.5]];portConstraint=eastwest;whiteSpace=wrap;html=1;fontFamily=Helvetica;fontSize=18;" vertex="1" parent="f0gKZIuqGx0MzMBd2Qco-26">
          <mxGeometry y="26" width="210" height="26" as="geometry" />
        </mxCell>
        <mxCell id="f0gKZIuqGx0MzMBd2Qco-28" value="" style="line;strokeWidth=1;fillColor=none;align=left;verticalAlign=middle;spacingTop=-1;spacingLeft=3;spacingRight=3;rotatable=0;labelPosition=right;points=[];portConstraint=eastwest;strokeColor=inherit;fontFamily=Helvetica;fontSize=18;" vertex="1" parent="f0gKZIuqGx0MzMBd2Qco-26">
          <mxGeometry y="52" width="210" height="8" as="geometry" />
        </mxCell>
        <mxCell id="f0gKZIuqGx0MzMBd2Qco-29" value="+ Forward(MatType input, MatType&amp;amp; output)" style="text;strokeColor=none;fillColor=none;align=left;verticalAlign=top;spacingLeft=4;spacingRight=4;overflow=hidden;rotatable=0;points=[[0,0.5],[1,0.5]];portConstraint=eastwest;whiteSpace=wrap;html=1;fontFamily=Helvetica;fontSize=18;" vertex="1" parent="f0gKZIuqGx0MzMBd2Qco-26">
          <mxGeometry y="60" width="210" height="60" as="geometry" />
        </mxCell>
        <mxCell id="f0gKZIuqGx0MzMBd2Qco-30" value="Encoder" style="swimlane;fontStyle=1;align=center;verticalAlign=top;childLayout=stackLayout;horizontal=1;startSize=26;horizontalStack=0;resizeParent=1;resizeParentMax=0;resizeLast=0;collapsible=1;marginBottom=0;whiteSpace=wrap;html=1;fontFamily=Helvetica;fontSize=18;" vertex="1" parent="WIyWlLk6GJQsqaUBKTNV-1">
          <mxGeometry x="-190" y="290" width="260" height="270" as="geometry" />
        </mxCell>
        <mxCell id="f0gKZIuqGx0MzMBd2Qco-31" value="- modelDim: size_t" style="text;strokeColor=none;fillColor=none;align=left;verticalAlign=top;spacingLeft=4;spacingRight=4;overflow=hidden;rotatable=0;points=[[0,0.5],[1,0.5]];portConstraint=eastwest;whiteSpace=wrap;html=1;fontFamily=Helvetica;fontSize=18;" vertex="1" parent="f0gKZIuqGx0MzMBd2Qco-30">
          <mxGeometry y="26" width="260" height="26" as="geometry" />
        </mxCell>
        <mxCell id="f0gKZIuqGx0MzMBd2Qco-47" value="- numHeads: size_t" style="text;strokeColor=none;fillColor=none;align=left;verticalAlign=top;spacingLeft=4;spacingRight=4;overflow=hidden;rotatable=0;points=[[0,0.5],[1,0.5]];portConstraint=eastwest;whiteSpace=wrap;html=1;fontFamily=Helvetica;fontSize=18;" vertex="1" parent="f0gKZIuqGx0MzMBd2Qco-30">
          <mxGeometry y="52" width="260" height="26" as="geometry" />
        </mxCell>
        <mxCell id="f0gKZIuqGx0MzMBd2Qco-48" value="- hiddenDim: size_t" style="text;strokeColor=none;fillColor=none;align=left;verticalAlign=top;spacingLeft=4;spacingRight=4;overflow=hidden;rotatable=0;points=[[0,0.5],[1,0.5]];portConstraint=eastwest;whiteSpace=wrap;html=1;fontFamily=Helvetica;fontSize=18;" vertex="1" parent="f0gKZIuqGx0MzMBd2Qco-30">
          <mxGeometry y="78" width="260" height="26" as="geometry" />
        </mxCell>
        <mxCell id="f0gKZIuqGx0MzMBd2Qco-49" value="- dropRatio: double" style="text;strokeColor=none;fillColor=none;align=left;verticalAlign=top;spacingLeft=4;spacingRight=4;overflow=hidden;rotatable=0;points=[[0,0.5],[1,0.5]];portConstraint=eastwest;whiteSpace=wrap;html=1;fontFamily=Helvetica;fontSize=18;" vertex="1" parent="f0gKZIuqGx0MzMBd2Qco-30">
          <mxGeometry y="104" width="260" height="26" as="geometry" />
        </mxCell>
        <mxCell id="f0gKZIuqGx0MzMBd2Qco-50" value="- attnLayer: MultiHeadAttention" style="text;strokeColor=none;fillColor=none;align=left;verticalAlign=top;spacingLeft=4;spacingRight=4;overflow=hidden;rotatable=0;points=[[0,0.5],[1,0.5]];portConstraint=eastwest;whiteSpace=wrap;html=1;fontFamily=Helvetica;fontSize=18;" vertex="1" parent="f0gKZIuqGx0MzMBd2Qco-30">
          <mxGeometry y="130" width="260" height="26" as="geometry" />
        </mxCell>
        <mxCell id="f0gKZIuqGx0MzMBd2Qco-51" value="- forwardLayer: PositionWiseFeedForward" style="text;strokeColor=none;fillColor=none;align=left;verticalAlign=top;spacingLeft=4;spacingRight=4;overflow=hidden;rotatable=0;points=[[0,0.5],[1,0.5]];portConstraint=eastwest;whiteSpace=wrap;html=1;fontFamily=Helvetica;fontSize=18;" vertex="1" parent="f0gKZIuqGx0MzMBd2Qco-30">
          <mxGeometry y="156" width="260" height="54" as="geometry" />
        </mxCell>
        <mxCell id="f0gKZIuqGx0MzMBd2Qco-32" value="" style="line;strokeWidth=1;fillColor=none;align=left;verticalAlign=middle;spacingTop=-1;spacingLeft=3;spacingRight=3;rotatable=0;labelPosition=right;points=[];portConstraint=eastwest;strokeColor=inherit;fontFamily=Helvetica;fontSize=18;" vertex="1" parent="f0gKZIuqGx0MzMBd2Qco-30">
          <mxGeometry y="210" width="260" height="8" as="geometry" />
        </mxCell>
        <mxCell id="f0gKZIuqGx0MzMBd2Qco-33" value="+ Forward(MatType input, MatType&amp;amp; output)" style="text;strokeColor=none;fillColor=none;align=left;verticalAlign=top;spacingLeft=4;spacingRight=4;overflow=hidden;rotatable=0;points=[[0,0.5],[1,0.5]];portConstraint=eastwest;whiteSpace=wrap;html=1;fontFamily=Helvetica;fontSize=18;" vertex="1" parent="f0gKZIuqGx0MzMBd2Qco-30">
          <mxGeometry y="218" width="260" height="52" as="geometry" />
        </mxCell>
        <mxCell id="f0gKZIuqGx0MzMBd2Qco-34" value="PositionalEncoding" style="swimlane;fontStyle=1;align=center;verticalAlign=top;childLayout=stackLayout;horizontal=1;startSize=26;horizontalStack=0;resizeParent=1;resizeParentMax=0;resizeLast=0;collapsible=1;marginBottom=0;whiteSpace=wrap;html=1;fontFamily=Helvetica;fontSize=18;" vertex="1" parent="WIyWlLk6GJQsqaUBKTNV-1">
          <mxGeometry x="258.5" y="940" width="225" height="170" as="geometry" />
        </mxCell>
        <mxCell id="f0gKZIuqGx0MzMBd2Qco-35" value="- modelDim: size_t" style="text;strokeColor=none;fillColor=none;align=left;verticalAlign=top;spacingLeft=4;spacingRight=4;overflow=hidden;rotatable=0;points=[[0,0.5],[1,0.5]];portConstraint=eastwest;whiteSpace=wrap;html=1;fontFamily=Helvetica;fontSize=18;" vertex="1" parent="f0gKZIuqGx0MzMBd2Qco-34">
          <mxGeometry y="26" width="225" height="26" as="geometry" />
        </mxCell>
        <mxCell id="f0gKZIuqGx0MzMBd2Qco-38" value="- maxSeqLength: size_t" style="text;strokeColor=none;fillColor=none;align=left;verticalAlign=top;spacingLeft=4;spacingRight=4;overflow=hidden;rotatable=0;points=[[0,0.5],[1,0.5]];portConstraint=eastwest;whiteSpace=wrap;html=1;fontFamily=Helvetica;fontSize=18;" vertex="1" parent="f0gKZIuqGx0MzMBd2Qco-34">
          <mxGeometry y="52" width="225" height="26" as="geometry" />
        </mxCell>
        <mxCell id="f0gKZIuqGx0MzMBd2Qco-39" value="- pe: MatType" style="text;strokeColor=none;fillColor=none;align=left;verticalAlign=top;spacingLeft=4;spacingRight=4;overflow=hidden;rotatable=0;points=[[0,0.5],[1,0.5]];portConstraint=eastwest;whiteSpace=wrap;html=1;fontFamily=Helvetica;fontSize=18;" vertex="1" parent="f0gKZIuqGx0MzMBd2Qco-34">
          <mxGeometry y="78" width="225" height="26" as="geometry" />
        </mxCell>
        <mxCell id="f0gKZIuqGx0MzMBd2Qco-36" value="" style="line;strokeWidth=1;fillColor=none;align=left;verticalAlign=middle;spacingTop=-1;spacingLeft=3;spacingRight=3;rotatable=0;labelPosition=right;points=[];portConstraint=eastwest;strokeColor=inherit;fontFamily=Helvetica;fontSize=18;" vertex="1" parent="f0gKZIuqGx0MzMBd2Qco-34">
          <mxGeometry y="104" width="225" height="8" as="geometry" />
        </mxCell>
        <mxCell id="f0gKZIuqGx0MzMBd2Qco-37" value="+ Forward(MatType input, MatType&amp;amp; output)" style="text;strokeColor=none;fillColor=none;align=left;verticalAlign=top;spacingLeft=4;spacingRight=4;overflow=hidden;rotatable=0;points=[[0,0.5],[1,0.5]];portConstraint=eastwest;whiteSpace=wrap;html=1;fontFamily=Helvetica;fontSize=18;" vertex="1" parent="f0gKZIuqGx0MzMBd2Qco-34">
          <mxGeometry y="112" width="225" height="58" as="geometry" />
        </mxCell>
        <mxCell id="f0gKZIuqGx0MzMBd2Qco-52" value="Decoder" style="swimlane;fontStyle=1;align=center;verticalAlign=top;childLayout=stackLayout;horizontal=1;startSize=26;horizontalStack=0;resizeParent=1;resizeParentMax=0;resizeLast=0;collapsible=1;marginBottom=0;whiteSpace=wrap;html=1;fontFamily=Helvetica;fontSize=18;" vertex="1" parent="WIyWlLk6GJQsqaUBKTNV-1">
          <mxGeometry x="-215" y="810" width="310" height="330" as="geometry" />
        </mxCell>
        <mxCell id="f0gKZIuqGx0MzMBd2Qco-53" value="- modelDim: size_t" style="text;strokeColor=none;fillColor=none;align=left;verticalAlign=top;spacingLeft=4;spacingRight=4;overflow=hidden;rotatable=0;points=[[0,0.5],[1,0.5]];portConstraint=eastwest;whiteSpace=wrap;html=1;fontFamily=Helvetica;fontSize=18;" vertex="1" parent="f0gKZIuqGx0MzMBd2Qco-52">
          <mxGeometry y="26" width="310" height="26" as="geometry" />
        </mxCell>
        <mxCell id="f0gKZIuqGx0MzMBd2Qco-54" value="- numHeads: size_t" style="text;strokeColor=none;fillColor=none;align=left;verticalAlign=top;spacingLeft=4;spacingRight=4;overflow=hidden;rotatable=0;points=[[0,0.5],[1,0.5]];portConstraint=eastwest;whiteSpace=wrap;html=1;fontFamily=Helvetica;fontSize=18;" vertex="1" parent="f0gKZIuqGx0MzMBd2Qco-52">
          <mxGeometry y="52" width="310" height="26" as="geometry" />
        </mxCell>
        <mxCell id="f0gKZIuqGx0MzMBd2Qco-55" value="- hiddenDim: size_t" style="text;strokeColor=none;fillColor=none;align=left;verticalAlign=top;spacingLeft=4;spacingRight=4;overflow=hidden;rotatable=0;points=[[0,0.5],[1,0.5]];portConstraint=eastwest;whiteSpace=wrap;html=1;fontFamily=Helvetica;fontSize=18;" vertex="1" parent="f0gKZIuqGx0MzMBd2Qco-52">
          <mxGeometry y="78" width="310" height="26" as="geometry" />
        </mxCell>
        <mxCell id="f0gKZIuqGx0MzMBd2Qco-56" value="- dropRatio: double" style="text;strokeColor=none;fillColor=none;align=left;verticalAlign=top;spacingLeft=4;spacingRight=4;overflow=hidden;rotatable=0;points=[[0,0.5],[1,0.5]];portConstraint=eastwest;whiteSpace=wrap;html=1;fontFamily=Helvetica;fontSize=18;" vertex="1" parent="f0gKZIuqGx0MzMBd2Qco-52">
          <mxGeometry y="104" width="310" height="26" as="geometry" />
        </mxCell>
        <mxCell id="f0gKZIuqGx0MzMBd2Qco-57" value="- attnLayer: MultiHeadAttention" style="text;strokeColor=none;fillColor=none;align=left;verticalAlign=top;spacingLeft=4;spacingRight=4;overflow=hidden;rotatable=0;points=[[0,0.5],[1,0.5]];portConstraint=eastwest;whiteSpace=wrap;html=1;fontFamily=Helvetica;fontSize=18;" vertex="1" parent="f0gKZIuqGx0MzMBd2Qco-52">
          <mxGeometry y="130" width="310" height="26" as="geometry" />
        </mxCell>
        <mxCell id="f0gKZIuqGx0MzMBd2Qco-61" value="- crossAttnLayer: MultiHeadAttention" style="text;strokeColor=none;fillColor=none;align=left;verticalAlign=top;spacingLeft=4;spacingRight=4;overflow=hidden;rotatable=0;points=[[0,0.5],[1,0.5]];portConstraint=eastwest;whiteSpace=wrap;html=1;fontFamily=Helvetica;fontSize=18;" vertex="1" parent="f0gKZIuqGx0MzMBd2Qco-52">
          <mxGeometry y="156" width="310" height="26" as="geometry" />
        </mxCell>
        <mxCell id="f0gKZIuqGx0MzMBd2Qco-58" value="- forwardLayer: PositionWiseFeedForward" style="text;strokeColor=none;fillColor=none;align=left;verticalAlign=top;spacingLeft=4;spacingRight=4;overflow=hidden;rotatable=0;points=[[0,0.5],[1,0.5]];portConstraint=eastwest;whiteSpace=wrap;html=1;fontFamily=Helvetica;fontSize=18;" vertex="1" parent="f0gKZIuqGx0MzMBd2Qco-52">
          <mxGeometry y="182" width="310" height="50" as="geometry" />
        </mxCell>
        <mxCell id="f0gKZIuqGx0MzMBd2Qco-59" value="" style="line;strokeWidth=1;fillColor=none;align=left;verticalAlign=middle;spacingTop=-1;spacingLeft=3;spacingRight=3;rotatable=0;labelPosition=right;points=[];portConstraint=eastwest;strokeColor=inherit;fontFamily=Helvetica;fontSize=18;" vertex="1" parent="f0gKZIuqGx0MzMBd2Qco-52">
          <mxGeometry y="232" width="310" height="8" as="geometry" />
        </mxCell>
        <mxCell id="f0gKZIuqGx0MzMBd2Qco-60" value="+ Forward(MatType input, MatType enOutput, MatType mask1, MatType mask2, MatType&amp;amp; output)" style="text;strokeColor=none;fillColor=none;align=left;verticalAlign=top;spacingLeft=4;spacingRight=4;overflow=hidden;rotatable=0;points=[[0,0.5],[1,0.5]];portConstraint=eastwest;whiteSpace=wrap;html=1;fontFamily=Helvetica;fontSize=18;" vertex="1" parent="f0gKZIuqGx0MzMBd2Qco-52">
          <mxGeometry y="240" width="310" height="90" as="geometry" />
        </mxCell>
        <mxCell id="f0gKZIuqGx0MzMBd2Qco-84" value="" style="group;fontFamily=Helvetica;fontSize=18;" vertex="1" connectable="0" parent="WIyWlLk6GJQsqaUBKTNV-1">
          <mxGeometry x="226" y="409" width="300" height="440" as="geometry" />
        </mxCell>
        <mxCell id="f0gKZIuqGx0MzMBd2Qco-62" value="Transformer" style="swimlane;fontStyle=1;align=center;verticalAlign=top;childLayout=stackLayout;horizontal=1;startSize=26;horizontalStack=0;resizeParent=1;resizeParentMax=0;resizeLast=0;collapsible=1;marginBottom=0;whiteSpace=wrap;html=1;fontFamily=Helvetica;fontSize=18;" vertex="1" parent="f0gKZIuqGx0MzMBd2Qco-84">
          <mxGeometry y="20" width="290" height="446" as="geometry" />
        </mxCell>
        <mxCell id="f0gKZIuqGx0MzMBd2Qco-72" value="- srcSize: size_t" style="text;strokeColor=none;fillColor=none;align=left;verticalAlign=top;spacingLeft=4;spacingRight=4;overflow=hidden;rotatable=0;points=[[0,0.5],[1,0.5]];portConstraint=eastwest;whiteSpace=wrap;html=1;fontFamily=Helvetica;fontSize=18;" vertex="1" parent="f0gKZIuqGx0MzMBd2Qco-62">
          <mxGeometry y="26" width="290" height="26" as="geometry" />
        </mxCell>
        <mxCell id="f0gKZIuqGx0MzMBd2Qco-74" value="- srcEmbed: MatType" style="text;strokeColor=none;fillColor=none;align=left;verticalAlign=top;spacingLeft=4;spacingRight=4;overflow=hidden;rotatable=0;points=[[0,0.5],[1,0.5]];portConstraint=eastwest;whiteSpace=wrap;html=1;fontFamily=Helvetica;fontSize=18;" vertex="1" parent="f0gKZIuqGx0MzMBd2Qco-62">
          <mxGeometry y="52" width="290" height="26" as="geometry" />
        </mxCell>
        <mxCell id="f0gKZIuqGx0MzMBd2Qco-73" value="- tgtSize: size_t" style="text;strokeColor=none;fillColor=none;align=left;verticalAlign=top;spacingLeft=4;spacingRight=4;overflow=hidden;rotatable=0;points=[[0,0.5],[1,0.5]];portConstraint=eastwest;whiteSpace=wrap;html=1;fontFamily=Helvetica;fontSize=18;" vertex="1" parent="f0gKZIuqGx0MzMBd2Qco-62">
          <mxGeometry y="78" width="290" height="26" as="geometry" />
        </mxCell>
        <mxCell id="f0gKZIuqGx0MzMBd2Qco-77" value="- tgtEmbed: MatType" style="text;strokeColor=none;fillColor=none;align=left;verticalAlign=top;spacingLeft=4;spacingRight=4;overflow=hidden;rotatable=0;points=[[0,0.5],[1,0.5]];portConstraint=eastwest;whiteSpace=wrap;html=1;fontFamily=Helvetica;fontSize=18;" vertex="1" parent="f0gKZIuqGx0MzMBd2Qco-62">
          <mxGeometry y="104" width="290" height="26" as="geometry" />
        </mxCell>
        <mxCell id="f0gKZIuqGx0MzMBd2Qco-78" value="- outSize: size_t" style="text;strokeColor=none;fillColor=none;align=left;verticalAlign=top;spacingLeft=4;spacingRight=4;overflow=hidden;rotatable=0;points=[[0,0.5],[1,0.5]];portConstraint=eastwest;whiteSpace=wrap;html=1;fontFamily=Helvetica;fontSize=18;" vertex="1" parent="f0gKZIuqGx0MzMBd2Qco-62">
          <mxGeometry y="130" width="290" height="26" as="geometry" />
        </mxCell>
        <mxCell id="f0gKZIuqGx0MzMBd2Qco-63" value="- modelDim: size_t" style="text;strokeColor=none;fillColor=none;align=left;verticalAlign=top;spacingLeft=4;spacingRight=4;overflow=hidden;rotatable=0;points=[[0,0.5],[1,0.5]];portConstraint=eastwest;whiteSpace=wrap;html=1;fontFamily=Helvetica;fontSize=18;" vertex="1" parent="f0gKZIuqGx0MzMBd2Qco-62">
          <mxGeometry y="156" width="290" height="26" as="geometry" />
        </mxCell>
        <mxCell id="f0gKZIuqGx0MzMBd2Qco-79" value="- numLayers: size_t" style="text;strokeColor=none;fillColor=none;align=left;verticalAlign=top;spacingLeft=4;spacingRight=4;overflow=hidden;rotatable=0;points=[[0,0.5],[1,0.5]];portConstraint=eastwest;whiteSpace=wrap;html=1;fontFamily=Helvetica;fontSize=18;" vertex="1" parent="f0gKZIuqGx0MzMBd2Qco-62">
          <mxGeometry y="182" width="290" height="26" as="geometry" />
        </mxCell>
        <mxCell id="f0gKZIuqGx0MzMBd2Qco-66" value="- dropRatio: double" style="text;strokeColor=none;fillColor=none;align=left;verticalAlign=top;spacingLeft=4;spacingRight=4;overflow=hidden;rotatable=0;points=[[0,0.5],[1,0.5]];portConstraint=eastwest;whiteSpace=wrap;html=1;fontFamily=Helvetica;fontSize=18;" vertex="1" parent="f0gKZIuqGx0MzMBd2Qco-62">
          <mxGeometry y="208" width="290" height="26" as="geometry" />
        </mxCell>
        <mxCell id="f0gKZIuqGx0MzMBd2Qco-76" value="- posEncoder: PositionalEncoding" style="text;strokeColor=none;fillColor=none;align=left;verticalAlign=top;spacingLeft=4;spacingRight=4;overflow=hidden;rotatable=0;points=[[0,0.5],[1,0.5]];portConstraint=eastwest;whiteSpace=wrap;html=1;fontFamily=Helvetica;fontSize=18;" vertex="1" parent="f0gKZIuqGx0MzMBd2Qco-62">
          <mxGeometry y="234" width="290" height="26" as="geometry" />
        </mxCell>
        <mxCell id="f0gKZIuqGx0MzMBd2Qco-80" value="- encoders: vector&amp;lt;Encoder&amp;gt;" style="text;strokeColor=none;fillColor=none;align=left;verticalAlign=top;spacingLeft=4;spacingRight=4;overflow=hidden;rotatable=0;points=[[0,0.5],[1,0.5]];portConstraint=eastwest;whiteSpace=wrap;html=1;fontFamily=Helvetica;fontSize=18;" vertex="1" parent="f0gKZIuqGx0MzMBd2Qco-62">
          <mxGeometry y="260" width="290" height="26" as="geometry" />
        </mxCell>
        <mxCell id="f0gKZIuqGx0MzMBd2Qco-81" value="- decoders: vector&amp;lt;Decoder&amp;gt;" style="text;strokeColor=none;fillColor=none;align=left;verticalAlign=top;spacingLeft=4;spacingRight=4;overflow=hidden;rotatable=0;points=[[0,0.5],[1,0.5]];portConstraint=eastwest;whiteSpace=wrap;html=1;fontFamily=Helvetica;fontSize=18;" vertex="1" parent="f0gKZIuqGx0MzMBd2Qco-62">
          <mxGeometry y="286" width="290" height="26" as="geometry" />
        </mxCell>
        <mxCell id="f0gKZIuqGx0MzMBd2Qco-109" value="- fc: MatType" style="text;strokeColor=none;fillColor=none;align=left;verticalAlign=top;spacingLeft=4;spacingRight=4;overflow=hidden;rotatable=0;points=[[0,0.5],[1,0.5]];portConstraint=eastwest;whiteSpace=wrap;html=1;fontFamily=Helvetica;fontSize=18;" vertex="1" parent="f0gKZIuqGx0MzMBd2Qco-62">
          <mxGeometry y="312" width="290" height="26" as="geometry" />
        </mxCell>
        <mxCell id="f0gKZIuqGx0MzMBd2Qco-70" value="" style="line;strokeWidth=1;fillColor=none;align=left;verticalAlign=middle;spacingTop=-1;spacingLeft=3;spacingRight=3;rotatable=0;labelPosition=right;points=[];portConstraint=eastwest;strokeColor=inherit;fontFamily=Helvetica;fontSize=18;" vertex="1" parent="f0gKZIuqGx0MzMBd2Qco-62">
          <mxGeometry y="338" width="290" height="8" as="geometry" />
        </mxCell>
        <mxCell id="f0gKZIuqGx0MzMBd2Qco-82" value="+ Clone() : Transformer*" style="text;strokeColor=none;fillColor=none;align=left;verticalAlign=top;spacingLeft=4;spacingRight=4;overflow=hidden;rotatable=0;points=[[0,0.5],[1,0.5]];portConstraint=eastwest;whiteSpace=wrap;html=1;fontFamily=Helvetica;fontSize=18;" vertex="1" parent="f0gKZIuqGx0MzMBd2Qco-62">
          <mxGeometry y="346" width="290" height="30" as="geometry" />
        </mxCell>
        <mxCell id="f0gKZIuqGx0MzMBd2Qco-71" value="+ Forward(MatType source, MatType target, MatType&amp;amp; output)" style="text;strokeColor=none;fillColor=none;align=left;verticalAlign=top;spacingLeft=4;spacingRight=4;overflow=hidden;rotatable=0;points=[[0,0.5],[1,0.5]];portConstraint=eastwest;whiteSpace=wrap;html=1;fontFamily=Helvetica;fontSize=18;" vertex="1" parent="f0gKZIuqGx0MzMBd2Qco-62">
          <mxGeometry y="376" width="290" height="70" as="geometry" />
        </mxCell>
        <mxCell id="f0gKZIuqGx0MzMBd2Qco-83" value="MatType" style="rounded=0;whiteSpace=wrap;html=1;dashed=1;fontFamily=Helvetica;fontSize=18;" vertex="1" parent="f0gKZIuqGx0MzMBd2Qco-84">
          <mxGeometry x="189" width="90" height="30" as="geometry" />
        </mxCell>
        <mxCell id="f0gKZIuqGx0MzMBd2Qco-85" value="&lt;p style=&quot;margin: 4px 0px 0px; text-align: center; font-size: 18px;&quot;&gt;&lt;b style=&quot;font-size: 18px;&quot;&gt;mlpack::Layer&lt;/b&gt;&lt;/p&gt;&lt;hr style=&quot;font-size: 18px;&quot;&gt;&lt;div style=&quot;height: 2px; font-size: 18px;&quot;&gt;&lt;/div&gt;&lt;hr style=&quot;font-size: 18px;&quot;&gt;&lt;div style=&quot;height: 2px; font-size: 18px;&quot;&gt;&lt;/div&gt;" style="verticalAlign=top;align=left;overflow=fill;fontSize=18;fontFamily=Helvetica;html=1;whiteSpace=wrap;" vertex="1" parent="WIyWlLk6GJQsqaUBKTNV-1">
          <mxGeometry x="301" y="245" width="140" height="74" as="geometry" />
        </mxCell>
        <mxCell id="f0gKZIuqGx0MzMBd2Qco-86" value="Extends" style="endArrow=block;endSize=16;endFill=0;html=1;rounded=0;exitX=0.5;exitY=0;exitDx=0;exitDy=0;entryX=0.5;entryY=1;entryDx=0;entryDy=0;fontFamily=Helvetica;fontSize=18;" edge="1" parent="WIyWlLk6GJQsqaUBKTNV-1" source="f0gKZIuqGx0MzMBd2Qco-62" target="f0gKZIuqGx0MzMBd2Qco-85">
          <mxGeometry width="160" relative="1" as="geometry">
            <mxPoint x="206" y="339" as="sourcePoint" />
            <mxPoint x="366" y="339" as="targetPoint" />
          </mxGeometry>
        </mxCell>
        <mxCell id="f0gKZIuqGx0MzMBd2Qco-88" value="Use" style="endArrow=open;endSize=12;dashed=1;html=1;rounded=0;fontFamily=Helvetica;fontSize=18;" edge="1" parent="WIyWlLk6GJQsqaUBKTNV-1" source="f0gKZIuqGx0MzMBd2Qco-30" target="f0gKZIuqGx0MzMBd2Qco-26">
          <mxGeometry width="160" relative="1" as="geometry">
            <mxPoint x="-210" y="570" as="sourcePoint" />
            <mxPoint x="70" y="490" as="targetPoint" />
          </mxGeometry>
        </mxCell>
        <mxCell id="f0gKZIuqGx0MzMBd2Qco-89" value="Use" style="endArrow=open;endSize=12;dashed=1;html=1;rounded=0;fontFamily=Helvetica;fontSize=18;" edge="1" parent="WIyWlLk6GJQsqaUBKTNV-1" source="f0gKZIuqGx0MzMBd2Qco-52" target="f0gKZIuqGx0MzMBd2Qco-26">
          <mxGeometry width="160" relative="1" as="geometry">
            <mxPoint x="-30" y="538" as="sourcePoint" />
            <mxPoint x="-30" y="620" as="targetPoint" />
          </mxGeometry>
        </mxCell>
        <mxCell id="f0gKZIuqGx0MzMBd2Qco-92" value="1" style="endArrow=open;html=1;endSize=12;startArrow=diamondThin;startSize=14;startFill=0;edgeStyle=orthogonalEdgeStyle;align=left;verticalAlign=bottom;rounded=0;fontFamily=Helvetica;fontSize=18;" edge="1" parent="WIyWlLk6GJQsqaUBKTNV-1" source="f0gKZIuqGx0MzMBd2Qco-30" target="f0gKZIuqGx0MzMBd2Qco-22">
          <mxGeometry x="-0.6296" relative="1" as="geometry">
            <mxPoint x="-80" y="670" as="sourcePoint" />
            <mxPoint x="80" y="670" as="targetPoint" />
            <Array as="points">
              <mxPoint x="-230" y="370" />
              <mxPoint x="-230" y="370" />
            </Array>
            <mxPoint as="offset" />
          </mxGeometry>
        </mxCell>
        <mxCell id="f0gKZIuqGx0MzMBd2Qco-97" value="1" style="edgeLabel;html=1;align=center;verticalAlign=middle;resizable=0;points=[];fontFamily=Helvetica;fontSize=18;" vertex="1" connectable="0" parent="f0gKZIuqGx0MzMBd2Qco-92">
          <mxGeometry x="0.4585" relative="1" as="geometry">
            <mxPoint x="-17" y="-15" as="offset" />
          </mxGeometry>
        </mxCell>
        <mxCell id="f0gKZIuqGx0MzMBd2Qco-93" value="1" style="endArrow=open;html=1;endSize=12;startArrow=diamondThin;startSize=14;startFill=0;edgeStyle=orthogonalEdgeStyle;align=left;verticalAlign=bottom;rounded=0;fontFamily=Helvetica;fontSize=18;" edge="1" parent="WIyWlLk6GJQsqaUBKTNV-1" source="f0gKZIuqGx0MzMBd2Qco-30" target="f0gKZIuqGx0MzMBd2Qco-0">
          <mxGeometry x="-0.8641" relative="1" as="geometry">
            <mxPoint x="-155" y="419" as="sourcePoint" />
            <mxPoint x="-290" y="449" as="targetPoint" />
            <Array as="points">
              <mxPoint x="-240" y="430" />
              <mxPoint x="-240" y="550" />
              <mxPoint x="-380" y="550" />
            </Array>
            <mxPoint as="offset" />
          </mxGeometry>
        </mxCell>
        <mxCell id="f0gKZIuqGx0MzMBd2Qco-95" value="1" style="edgeLabel;html=1;align=center;verticalAlign=middle;resizable=0;points=[];fontFamily=Helvetica;fontSize=18;" vertex="1" connectable="0" parent="f0gKZIuqGx0MzMBd2Qco-93">
          <mxGeometry x="0.8335" y="2" relative="1" as="geometry">
            <mxPoint x="9" y="8" as="offset" />
          </mxGeometry>
        </mxCell>
        <mxCell id="f0gKZIuqGx0MzMBd2Qco-98" value="1" style="endArrow=open;html=1;endSize=12;startArrow=diamondThin;startSize=14;startFill=0;edgeStyle=orthogonalEdgeStyle;align=left;verticalAlign=bottom;rounded=0;fontFamily=Helvetica;fontSize=18;" edge="1" parent="WIyWlLk6GJQsqaUBKTNV-1" source="f0gKZIuqGx0MzMBd2Qco-52" target="f0gKZIuqGx0MzMBd2Qco-0">
          <mxGeometry x="-0.6" y="-2" relative="1" as="geometry">
            <mxPoint x="-150" y="710" as="sourcePoint" />
            <mxPoint x="-220" y="710" as="targetPoint" />
            <Array as="points">
              <mxPoint x="-240" y="912" />
              <mxPoint x="-240" y="912" />
            </Array>
            <mxPoint as="offset" />
          </mxGeometry>
        </mxCell>
        <mxCell id="f0gKZIuqGx0MzMBd2Qco-99" value="2" style="edgeLabel;html=1;align=center;verticalAlign=middle;resizable=0;points=[];fontFamily=Helvetica;fontSize=18;" vertex="1" connectable="0" parent="f0gKZIuqGx0MzMBd2Qco-98">
          <mxGeometry x="0.7817" relative="1" as="geometry">
            <mxPoint x="12" y="-15" as="offset" />
          </mxGeometry>
        </mxCell>
        <mxCell id="f0gKZIuqGx0MzMBd2Qco-100" value="1" style="endArrow=open;html=1;endSize=12;startArrow=diamondThin;startSize=14;startFill=0;edgeStyle=orthogonalEdgeStyle;align=left;verticalAlign=bottom;rounded=0;fontFamily=Helvetica;fontSize=18;" edge="1" parent="WIyWlLk6GJQsqaUBKTNV-1" source="f0gKZIuqGx0MzMBd2Qco-52" target="f0gKZIuqGx0MzMBd2Qco-22">
          <mxGeometry x="-0.9517" relative="1" as="geometry">
            <mxPoint x="-280" y="600" as="sourcePoint" />
            <mxPoint x="-120" y="600" as="targetPoint" />
            <Array as="points">
              <mxPoint x="-700" y="1070" />
              <mxPoint x="-700" y="410" />
            </Array>
            <mxPoint as="offset" />
          </mxGeometry>
        </mxCell>
        <mxCell id="f0gKZIuqGx0MzMBd2Qco-101" value="1" style="edgeLabel;html=1;align=center;verticalAlign=middle;resizable=0;points=[];fontFamily=Helvetica;fontSize=18;" vertex="1" connectable="0" parent="f0gKZIuqGx0MzMBd2Qco-100">
          <mxGeometry x="0.9284" y="-2" relative="1" as="geometry">
            <mxPoint x="20" y="-18" as="offset" />
          </mxGeometry>
        </mxCell>
        <mxCell id="f0gKZIuqGx0MzMBd2Qco-102" value="1" style="endArrow=open;html=1;endSize=12;startArrow=diamondThin;startSize=14;startFill=0;edgeStyle=orthogonalEdgeStyle;align=left;verticalAlign=bottom;rounded=0;fontFamily=Helvetica;fontSize=18;" edge="1" parent="WIyWlLk6GJQsqaUBKTNV-1" source="f0gKZIuqGx0MzMBd2Qco-62" target="f0gKZIuqGx0MzMBd2Qco-52">
          <mxGeometry x="-0.8855" y="-2" relative="1" as="geometry">
            <mxPoint x="-54.00000000000001" y="675" as="sourcePoint" />
            <mxPoint x="171" y="950.0769230769229" as="targetPoint" />
            <mxPoint as="offset" />
          </mxGeometry>
        </mxCell>
        <mxCell id="f0gKZIuqGx0MzMBd2Qco-103" value="n" style="edgeLabel;html=1;align=center;verticalAlign=middle;resizable=0;points=[];fontFamily=Helvetica;fontSize=18;" vertex="1" connectable="0" parent="f0gKZIuqGx0MzMBd2Qco-102">
          <mxGeometry x="0.8632" relative="1" as="geometry">
            <mxPoint y="11" as="offset" />
          </mxGeometry>
        </mxCell>
        <mxCell id="f0gKZIuqGx0MzMBd2Qco-104" value="1" style="endArrow=open;html=1;endSize=12;startArrow=diamondThin;startSize=14;startFill=0;edgeStyle=orthogonalEdgeStyle;align=left;verticalAlign=bottom;rounded=0;fontFamily=Helvetica;fontSize=18;" edge="1" parent="WIyWlLk6GJQsqaUBKTNV-1" source="f0gKZIuqGx0MzMBd2Qco-62" target="f0gKZIuqGx0MzMBd2Qco-30">
          <mxGeometry x="-0.8059" y="-10" relative="1" as="geometry">
            <mxPoint x="70" y="550" as="sourcePoint" />
            <mxPoint x="230" y="550" as="targetPoint" />
            <Array as="points">
              <mxPoint x="160" y="520" />
              <mxPoint x="160" y="409" />
            </Array>
            <mxPoint as="offset" />
          </mxGeometry>
        </mxCell>
        <mxCell id="f0gKZIuqGx0MzMBd2Qco-106" value="n" style="edgeLabel;html=1;align=center;verticalAlign=middle;resizable=0;points=[];fontFamily=Helvetica;fontSize=18;" vertex="1" connectable="0" parent="f0gKZIuqGx0MzMBd2Qco-104">
          <mxGeometry x="0.7472" y="-3" relative="1" as="geometry">
            <mxPoint x="-3" y="-18" as="offset" />
          </mxGeometry>
        </mxCell>
        <mxCell id="f0gKZIuqGx0MzMBd2Qco-108" value="1" style="endArrow=open;html=1;endSize=12;startArrow=diamondThin;startSize=14;startFill=0;edgeStyle=orthogonalEdgeStyle;align=left;verticalAlign=bottom;rounded=0;fontSize=18;" edge="1" parent="WIyWlLk6GJQsqaUBKTNV-1" source="f0gKZIuqGx0MzMBd2Qco-62" target="f0gKZIuqGx0MzMBd2Qco-34">
          <mxGeometry x="-0.2308" y="-21" relative="1" as="geometry">
            <mxPoint x="-40" y="750" as="sourcePoint" />
            <mxPoint x="120" y="750" as="targetPoint" />
            <mxPoint as="offset" />
          </mxGeometry>
        </mxCell>
        <mxCell id="f0gKZIuqGx0MzMBd2Qco-110" value="1" style="edgeLabel;html=1;align=center;verticalAlign=middle;resizable=0;points=[];fontSize=18;" vertex="1" connectable="0" parent="f0gKZIuqGx0MzMBd2Qco-108">
          <mxGeometry x="0.241" relative="1" as="geometry">
            <mxPoint x="19" y="5" as="offset" />
          </mxGeometry>
        </mxCell>
      </root>
    </mxGraphModel>
  </diagram>
</mxfile>
